<svg xmlns="http://www.w3.org/2000/svg" xmlns:xlink="http://www.w3.org/1999/xlink" id="Layer_1" x="0px" y="0px" viewBox="0 0 300 198.9" style="enable-background:new 0 0 300 198.9;" xml:space="preserve"> <style type="text/css"> .st0{fill-rule:evenodd;clip-rule:evenodd;fill:#F7EA28;} .st1{fill-rule:evenodd;clip-rule:evenodd;fill:#F38521;} .st2{fill-rule:evenodd;clip-rule:evenodd;fill:#F38825;} .st3{fill-rule:evenodd;clip-rule:evenodd;fill:#F49138;} .st4{fill-rule:evenodd;clip-rule:evenodd;fill:#F49136;} .st5{fill-rule:evenodd;clip-rule:evenodd;fill:#F59A49;} .st6{fill-rule:evenodd;clip-rule:evenodd;fill:#F48B2A;} .st7{fill-rule:evenodd;clip-rule:evenodd;fill:#F5953F;} .st8{fill-rule:evenodd;clip-rule:evenodd;fill:#F59A47;} .st9{fill-rule:evenodd;clip-rule:evenodd;fill:#F69E51;} .st10{fill-rule:evenodd;clip-rule:evenodd;fill:#F6A158;} .st11{fill-rule:evenodd;clip-rule:evenodd;fill:#FDF3EB;} .st12{fill-rule:evenodd;clip-rule:evenodd;fill:#F6A054;} .st13{fill-rule:evenodd;clip-rule:evenodd;fill:#F58A29;} .st14{fill-rule:evenodd;clip-rule:evenodd;fill:#89C340;} .st15{fill-rule:evenodd;clip-rule:evenodd;fill:#87C340;} .st16{fill-rule:evenodd;clip-rule:evenodd;fill:#F38321;} .st17{fill-rule:evenodd;clip-rule:evenodd;fill:#F48E32;} .st18{fill-rule:evenodd;clip-rule:evenodd;fill:#F48F31;} .st19{fill-rule:evenodd;clip-rule:evenodd;fill:#F38320;} .st20{fill-rule:evenodd;clip-rule:evenodd;fill:#F48B2B;} .st21{fill-rule:evenodd;clip-rule:evenodd;fill:#F48E2F;} .st22{fill-rule:evenodd;clip-rule:evenodd;fill:#F48F34;} .st23{fill-rule:evenodd;clip-rule:evenodd;fill:#F38323;} </style> <g> <g> <path class="st0" d="M132.7,40.6c-0.8-0.5-1.5-0.9-2-1.4c-0.4-0.4,0.3-0.8,0.5-1.2c2.7-4,6-7.5,9-11.2c0.9-1.1,1.8-2.3,2.7-3.5 c0.2-0.3,0.6-0.7,1-0.5c0.5,0.3,0.1,0.8-0.1,1.1c-3.7,4.9-6.4,10.5-10.1,15.4C133.5,39.8,133.1,40.2,132.7,40.6z"></path> <path class="st0" d="M133.3,41.3c2.9-3.5,5-7.2,7.3-10.8c1.6,2.2,1.6,4.7-0.1,6.8c-0.9,1-1.5,2.2-1.6,3.5 c-0.1,0.5-0.2,0.6-0.7,0.6C136.6,41.3,135.1,41.3,133.3,41.3z"></path> <path class="st0" d="M131.1,37c-1.5-1.8-1.6-4.2-0.4-6.1c1.2-2,4.1-3.5,7.2-2.5C135.6,31.3,133.2,34,131.1,37z"></path> <path class="st0" d="M124.9,48c0.6-2.1,1.5-4.4,3.5-5.9c0.8-0.6,1.2,0.5,1.8,0.8c0.5,0.2,0.5,0.5,0.3,1c-0.8,2.3-2.4,3.9-4.3,5.3 C125.4,49.6,124.9,49.3,124.9,48z"></path> <path class="st0" d="M131.2,42.6c-0.3,0-2-1.3-2-1.4c0.3-0.5,0.5-1.2,1.1-1.5c0.1-0.1,2,1.2,1.9,1.4 C131.9,41.7,131.6,42.2,131.2,42.6z"></path> <path class="st0" d="M133.7,42.9c-0.6-0.5-0.7-0.9,0.2-0.9c1.3-0.1,2.6,0,3.9,0c0.8,0,0.7,0.4,0.3,0.9 C136.6,43.5,135.1,43.4,133.7,42.9z"></path> <path class="st0" d="M138.1,43.2c0.5,0.6,0.3,0.9-0.4,0.9c-1.3,0-2.5,0.1-3.8,0c-0.8,0-0.9-0.4-0.2-0.9 C135.1,43,136.6,42.9,138.1,43.2z"></path> <path class="st0" d="M127.7,22.5c1.2,1.6,2.4,3.2,3.7,4.7c-0.1,0.1-0.3,0.2-0.4,0.3c-1.2-1.6-2.4-3.2-3.7-4.7 C127.5,22.7,127.6,22.6,127.7,22.5z"></path> <path class="st0" d="M135.9,26.1c-0.2-1.9-0.4-3.9-0.1-5.8C136.1,22.3,136.1,24.2,135.9,26.1z"></path> <path class="st0" d="M135.8,44.4c0.4,0.1,1.3-0.3,1.2,0.6c0,0.6-0.8,0.4-1.2,0.4c-0.4,0-1.2,0.2-1.2-0.4 C134.6,44.1,135.4,44.5,135.8,44.4z"></path> <path class="st0" d="M127.1,35.8c-1.2,0.6-2.5,1.2-3.8,1.5c-0.1-0.1-0.1-0.3-0.2-0.4c1.2-0.5,2.4-1,3.6-1.5 C127.1,35.4,127.1,35.6,127.1,35.8z"></path> <path class="st0" d="M144.8,35.5c1.2,0.5,2.4,1,3.6,1.5c-0.1,0.1-0.1,0.3-0.2,0.4c-1.3-0.4-2.5-1-3.8-1.5 C144.4,35.6,144.5,35.4,144.8,35.5z"></path> <path class="st0" d="M146.1,29.9c-1,0.3-2,0.8-3.1,0.8c0.8-0.7,1.7-0.8,2.6-1.1C145.9,29.6,146.1,29.4,146.1,29.9z"></path> <path class="st0" d="M126.1,30.2c-0.9-0.2-1.7-0.5-2.5-0.9c0-0.2,0.2-0.2,0.3-0.3c1,0.2,1.9,0.5,2.8,0.9 C126.6,30.2,126.3,30.1,126.1,30.2z"></path> <path class="st0" d="M126.1,30.2c0.1-0.2,0.3-0.2,0.5-0.3c0.7,0.1,1.3,0.3,2.2,0.9C127.6,30.9,126.9,30.4,126.1,30.2z"></path> <path class="st0" d="M138.1,43.2c-1.5,0-2.9,0-4.4,0c0-0.1,0-0.2,0-0.2c1.4,0,2.9,0,4.4,0C138.1,43,138.1,43.1,138.1,43.2z"></path> <path class="st0" d="M146.1,29.9c-0.1-0.2-0.3-0.2-0.6-0.3c0.6-0.3,1.3-0.6,2-0.7c0.1,0.1,0.3,0.1,0.3,0.3 C147.4,29.6,146.8,29.8,146.1,29.9z"></path> <path class="st0" d="M144.8,35.5c-0.1,0.1-0.2,0.2-0.3,0.3c-0.4-0.1-0.8-0.2-1.4-0.7C143.9,34.9,144.3,35.3,144.8,35.5z"></path> <path class="st0" d="M127.1,35.8c-0.1-0.1-0.2-0.2-0.3-0.3c0.4-0.3,0.9-0.5,1.5-0.4C128,35.7,127.5,35.7,127.1,35.8z"></path> <path class="st0" d="M147.9,29.3c-0.1-0.1-0.2-0.2-0.3-0.3c0.3-0.1,0.7-0.4,0.8-0.1C148.6,29.3,148.1,29.2,147.9,29.3z"></path> <path class="st0" d="M123.9,29c-0.1,0.1-0.2,0.2-0.3,0.3c-0.2-0.1-0.7,0-0.5-0.3C123.2,28.6,123.6,28.9,123.9,29z"></path> <g> <path class="st0" d="M135.2,186.7c-3.4-0.1-6.8-0.5-10-1.7c-1-0.4-2-0.9-2.8-1.6c-0.9-0.9-1.1-1.9-0.6-3c0.4-1,1.5-1.5,2.8-1.3 c1.2,0.2,2.3,0.9,3.4,1.4c3.1,1.4,6.2,2,9.6,1.6c4.1-0.5,7.3-3.2,8-6.8c0.6-2.8-0.3-4.8-2.8-6.3c-2.6-1.5-5.4-2.2-8.2-3 c-2.6-0.8-5.3-1.6-7.7-3c-5.7-3.3-6.5-9.8-1.8-14.4c3.9-3.8,8.8-4.7,14-4.3c2.4,0.2,4.7,0.6,6.9,1.6c0.9,0.4,1.7,0.8,2.4,1.5 c0.7,0.7,1,1.5,0.6,2.4c-0.4,0.9-1.1,1.4-2.1,1.5c-1.4,0.2-2.5-0.4-3.6-1c-3.1-1.7-6.4-2.1-9.8-1.2c-1.4,0.4-2.7,1.1-3.6,2.3 c-1.8,2.3-1.4,5.2,0.9,7c1.8,1.3,3.8,2,5.9,2.6c2.3,0.8,4.6,1.5,7,2.2c0.6,0.2,1.1,0.5,1.7,0.7c3.8,1.6,6.7,4,7.1,8.4 c0.4,4.6-1.5,8.3-5.2,11.1C143.5,185.9,139.5,186.7,135.2,186.7z"></path> <path class="st0" d="M262.5,165.4c0-5.9,0-11.8,0-17.7c0-2.3,0.9-3.3,3.1-3.3c6,0,12,0,18,0c2,0,3,0.9,3,2.5 c0,1.1-0.6,1.8-1.6,2.2c-0.7,0.2-1.4,0.2-2.1,0.2c-4.4,0-8.8,0-13.2,0c-0.8,0-1,0.2-1,1c0,3.9,0,7.8,0,11.7c0,0.8,0.2,1,1,1 c4.1,0,8.1,0,12.2,0c2.3,0,3.4,0.8,3.4,2.4c0,1.6-1.2,2.4-3.5,2.4c-4,0-8.1,0-12.1,0c-0.9,0-1.1,0.3-1.1,1.1 c0,3.9,0.1,7.7,0,11.6c0,1,0.3,1.1,1.2,1.1c4.4-0.1,8.7,0,13.1,0c0.7,0,1.4,0,2,0.2c1,0.3,1.6,1,1.6,2.2c0,1.1-0.5,1.9-1.5,2.2 c-0.5,0.2-1.1,0.3-1.7,0.3c-5.8,0-11.6,0-17.4,0c-2.5,0-3.5-0.9-3.5-3.4C262.5,177.2,262.5,171.3,262.5,165.4z"></path> <path class="st0" d="M231.2,165.4c0-5.9,0-11.8,0-17.7c0-2.3,1-3.3,3.3-3.3c5.9,0,11.8,0,17.7,0c2.1,0,3.1,0.9,3.1,2.5 c0,1.1-0.6,1.8-1.5,2.1c-0.6,0.2-1.4,0.3-2,0.3c-4.4,0-8.8,0-13.2,0c-0.8,0-1.1,0.1-1.1,1c0.1,3.9,0,7.8,0,11.7c0,0.8,0.2,1,1,1 c4.1,0,8.1,0,12.2,0c2.3,0,3.4,0.9,3.4,2.4c0,1.6-1.2,2.4-3.3,2.4c-4,0-8.1,0-12.1,0c-0.8,0-1.2,0.1-1.2,1.1 c0.1,3.8,0.1,7.7,0,11.5c0,0.9,0.2,1.2,1.2,1.2c4.4-0.1,8.7,0,13.1,0c0.7,0,1.5,0,2.2,0.3c1,0.4,1.5,1.1,1.5,2.1 c0,1.1-0.4,1.8-1.4,2.2c-0.6,0.2-1.2,0.3-1.8,0.3c-5.8,0-11.6,0-17.4,0c-2.5,0-3.4-1-3.4-3.5 C231.2,177.1,231.2,171.3,231.2,165.4z"></path> <path class="st0" d="M53.7,165.4c0-5.9,0-11.7,0-17.6c0-2.4,0.9-3.4,3.3-3.4c5.9,0,11.8,0,17.7,0c2.1,0,3.1,0.9,3,2.5 c0,1.1-0.6,1.8-1.6,2.1c-0.7,0.2-1.4,0.2-2.1,0.2c-4.4,0-8.8,0-13.2,0c-0.9,0-1.1,0.2-1.1,1.1c0,3.9,0,7.8,0,11.6 c0,0.9,0.2,1.1,1.1,1.1c4-0.1,7.9,0,11.9,0c0.3,0,0.6,0,0.9,0c1.8,0.1,2.8,0.9,2.8,2.4c0,1.5-1,2.4-2.9,2.4 c-3.6,0.1-7.2,0-10.8,0c-2.9,0-2.9,0-2.9,3c0,3.1,0.1,6.3,0,9.4c0,1.2,0.4,1.4,1.5,1.4c4.3-0.1,8.6,0,12.8,0c0.7,0,1.4,0,2.1,0.2 c1,0.4,1.5,1,1.6,2.1c0,1.1-0.4,1.9-1.5,2.3c-0.5,0.2-1.1,0.3-1.7,0.3c-5.8,0-11.7,0-17.5,0c-2.5,0-3.4-1-3.4-3.5 C53.7,177.1,53.7,171.2,53.7,165.4z"></path> <path class="st0" d="M100.4,178.1c1.9-4.6,3.7-8.8,5.4-13.1c2.5-6,5-12.1,7.5-18.1c0.7-1.6,1.7-2.8,3.6-2.8 c1.9,0.1,2.9,1.2,2.6,3.1c-0.1,0.4-0.2,0.9-0.4,1.3c-5.1,11.9-10.1,23.7-15.2,35.5c-0.6,1.4-1.4,2.5-3.1,2.6 c-1.9,0.2-3-0.5-3.8-2.3c-1.8-4-3.5-8.1-5.2-12.1c-3.3-7.7-6.6-15.4-9.9-23.1c-0.2-0.4-0.3-0.8-0.5-1.1c-0.6-1.8-0.3-2.9,0.9-3.5 c1.5-0.8,3.5-0.4,4.3,1c0.4,0.7,0.8,1.4,1.1,2.2c4,9.6,8,19.2,12,28.8C99.9,177,100.1,177.4,100.4,178.1z"></path> <path class="st0" d="M178,167c0,5.5,0,11,0,16.5c0,2.7-2.5,4.1-4.9,2.8c-1-0.6-1.3-1.5-1.3-2.6c0-5.1,0-10.3,0-15.4 c0-6,0-12,0-18c0-0.9-0.2-1.1-1.1-1.1c-2.8,0.1-5.5,0-8.3,0c-1.7,0-2.7-0.7-2.9-1.9c-0.3-1.3,0.3-2.4,1.6-2.8 c0.4-0.1,1-0.2,1.4-0.2c8.2,0,16.5,0,24.7,0c0.6,0,1.1,0.1,1.7,0.3c1,0.4,1.5,1.1,1.5,2.2c0,1-0.5,1.8-1.5,2.1 c-0.6,0.2-1.3,0.3-1.9,0.3c-2.7,0-5.3,0-7.9,0c-0.8,0-1,0.2-1,1C178,155.9,178,161.5,178,167z"></path> <path class="st0" d="M214.5,54.8c-3-0.9-6.1-1.1-9.3-1c-0.1-0.5,0.2-0.7,0.4-1c3.7-6.2,5-12.9,3.5-20.1 c-3.2-14.7-16-23.9-31-22.2c-6.5,0.8-12,3.7-16.5,8.4c-0.3,0.3-0.7,0.5-0.4,1c1,1.5,1.7,3.1,2.5,4.8c0.3-0.4,0.5-0.6,0.7-0.8 c5.1-5.9,11.4-8.7,19.2-8c16.4,1.4,25.8,19.2,17.7,33.4c-1.9,3.4-4.4,6.1-7.9,7.9c-4.9,2.5-8.5,6.4-11.1,11.2 c-0.2,0.3-0.3,0.7-0.6,0.9c-10.6-21.1-39.6-20.2-49.4-1.9c-0.2-0.4-0.4-0.8-0.6-1.2c-2.5-5.3-6.3-9.4-11.4-12.4 c-0.9-0.5-1.7-1.1-2.4-1.9c-5.1-5.4-7-11.9-5.8-19.3c1.9-12.1,13.9-20.6,25.9-18.4c14.4,2.7,22.5,17.2,17.1,30.9 c-0.1,0.4-0.4,0.7-0.2,1.2c0.6,2,1.4,4,2.5,5.8c6.5-8.9,6.9-22.4-1.1-32.8c-8.1-10.4-22-13.8-33.8-8.2 c-7.3,3.5-12.3,9.2-14.8,16.8c-2.6,7.7-1.6,15.1,2.2,22.3c-2.5-0.2-4.8-0.3-7.1,0.1C86.5,52.5,75.4,68.3,79,84.2 c2.9,12.8,14.2,21.8,27.4,21.8c8.5,0,15.6-3.3,21.1-9.7c0.3-0.4,0.7-0.7,0.4-1.3c-0.9-1.8-1.5-3.6-2-5.5 c-0.5,0.2-0.6,0.6-0.8,0.9c-1.4,2.2-3.1,4.1-5.2,5.7c-7.1,5.4-17,6-25,1.4c-8.3-4.9-11.9-12.3-11-21.9 c1.1-11,10.3-19.5,21.2-20.1c12.5-0.7,24.3,9.7,23.7,23c-0.1,1.5-0.4,3.1-0.2,4.6c1,10.9,6.4,18.9,16.1,23.8 c0.6,0.3,1,0.7,1.2,1.4c0.8,2.6,1.6,5.2,2.5,7.8c0.3,0.8,0.3,1.6,0.1,2.4c-0.8,3.4-1.7,6.9-2.3,10.4c-0.4,2-1.1,2.9-3.3,3.3 c-4.1,0.7-8,2-11.5,4.6c-0.9,0.6-1.6,1.3-2.1,2.3c18.3-6.1,36.5-6.2,54.6,0c-0.6-1.2-1.9-2.4-4-3.5c-3.1-1.7-6.4-2.7-9.8-3.4 c-0.8-0.2-1.2-0.4-1.4-1.3c-0.6-3.7-1.4-7.4-2.1-11c-0.2-0.9-0.4-1.8-0.2-2.8c0.8-3.1,1.6-6.1,2.3-9.3c0.2-0.8,0.6-1.2,1.3-1.6 c9.4-5.5,14.3-13.7,14.5-24.6c0.2-12.8,10.3-22.8,23.1-22.4c14.5,0.4,24.8,13.7,21.4,27.9c-2.2,9-9.5,15.6-18.8,16.9 c-9.7,1.3-18.3-2.9-22.9-11.3c-0.2-0.4-0.4-0.7-0.7-1.2c-0.7,1.8-1.3,3.5-2.2,5c-0.6,0.9-0.4,1.4,0.2,2.1 c6.6,8.4,15.1,12.1,25.7,10.9c13-1.5,22.9-11.5,24.4-24.4C236.3,71.3,227.8,58.6,214.5,54.8z M173.5,96.7c-2.4,2.9-5.5,4.8-9,6.1 c-0.6,0.3-0.9,0.5-1,1.3c-0.5,4-1.1,7.9-1.6,11.9c-0.2,1.9,0.3,3.8,0.5,5.7c0.3,2.8,0.7,5.7,1.1,8.5c0.1,0.7,0.1,1.1-0.9,1 c-3.5-0.3-7-0.4-10.5-0.1c-0.9,0.1-1.1-0.1-0.9-1c0.7-4,1.4-7.9,2-11.9c0.2-1.4-0.3-2.7-0.5-4c-0.5-3.1-1-6.2-1.5-9.3 c-0.1-0.8-0.4-1.3-1.4-1.5c-9.1-2.7-15.2-10.4-15.7-19.6c-0.5-10.3,4.6-19.2,13.2-22.8c2.7-1.1,5.7-1.7,8.9-1.7 c9.4,0.2,16.6,4.2,20.5,12.9C180.7,80.8,179.7,89.2,173.5,96.7z"></path> <path class="st0" d="M28.8,144.6c-5.4-0.5-10.8-0.2-16.1-0.2c-2.1,0-3,1.1-3,3.2c0,5.9,0,11.8,0,17.7c0,6,0,12,0,18 c0,2,0.9,3.1,2.9,3.1c5.7,0,11.3,0.4,17-0.2c5.6-0.6,10.3-2.9,13.7-7.5c3.1-4.2,4.1-9,4-14.1C47.2,153.8,39.6,145.6,28.8,144.6z M39.2,173.2c-2.2,5.2-6.2,7.9-11.6,8.6c-3.6,0.5-7.3,0.1-11,0.2c-0.9,0-0.8-0.5-0.8-1c0-5.2,0-10.4,0-15.6c0-5.1,0-10.3,0-15.4 c0-0.5-0.2-1.1,0.7-1.1c4,0.1,8-0.3,11.9,0.4c6.7,1.2,11.1,5.8,12,12.5C41,165.7,40.8,169.5,39.2,173.2z"></path> <path class="st0" d="M225.1,182.9c-0.6-0.7-1.2-1.2-1.8-1.8c-4.8-4.4-9.6-8.8-14.7-13.5c0.9,0,1.4,0,1.9,0c3.1-0.1,6.1-0.5,9-1.9 c6-3,7.8-12.8,1.6-17.5c-2.5-1.9-5.4-3.1-8.5-3.5c-5-0.6-10-0.2-15-0.2c-1.9,0-2.8,1.1-2.8,3.1c0,6.4,0,12.7,0,19.1 c0,5.7,0,11.4,0,17.1c0,1.1,0.3,2,1.3,2.6c2.4,1.4,4.9-0.1,4.9-2.8c0-4.8,0-9.5,0-14.3c0-0.4-0.2-0.7,0.2-1 c0.8,0.7,1.5,1.4,2.3,2.1c5.5,5.1,11.1,10.1,16.6,15.2c1.1,1,2.4,1.6,3.9,1.1C225.8,186.1,226.4,184.4,225.1,182.9z M201.7,163.8 c-0.7,0-0.8-0.4-0.8-0.9c0-2.2,0-4.5,0-6.7c0-2.1,0-4.3,0-6.4c0-0.6,0.1-0.9,0.8-0.9c3.1,0.1,6.3-0.2,9.4,0.2 c1.3,0.2,2.6,0.5,3.7,1.1c4.7,2.4,4.6,7.4,2.8,10.4c-1.3,2.4-3.8,2.9-6.2,3.1C208.2,163.8,204.9,163.7,201.7,163.8z"></path> </g> <path class="st0" d="M189,32.5c0.1-0.4,0.4-0.9-0.1-1.2c-0.4-0.3-0.8-0.1-1.1,0.1c-0.6,0.3-1.2,0.3-1.8,0 c-0.5-0.2-1.1-0.3-1.7-0.3c-4.9-0.3-9.5,4.4-9.3,9.3c0.1,3.1,2.3,4.9,5.3,4.4c1.4-0.2,2.6-0.8,3.6-1.9c0.5,1.5,1.1,2,2.6,2 c0.8,0,1.6-0.2,2.3-0.6c2.3-1.2,3.7-3.2,4.7-5.4c2.8-6.2-0.6-12.5-7.3-13.6c-5.9-1-12.3,2.2-15.1,7.7c-2.1,4-2.6,8.2-0.3,12.3 c2.8,4.8,8.8,6.8,14.4,4.8c1.9-0.7,3.7-1.5,5.1-3c0.3-0.4,0.7-0.8,0.3-1.3c-0.4-0.5-0.9-0.4-1.3-0.1c-0.3,0.2-0.6,0.4-0.9,0.6 c-1.6,1.1-3.3,1.8-5.1,2.2c-4.7,1-9-1.4-10.6-5.9c-1.6-4.7,0.9-10.9,5.6-13.7c2.5-1.5,5.2-2,8-1.3c2.8,0.7,4.6,2.6,5.2,5.4 c0.7,3.3,0,6.4-2.3,8.9c-0.6,0.6-1.4,1.4-2.3,0.9c-0.9-0.6-0.2-1.6,0-2.3C187.5,37.7,188.3,35.1,189,32.5z M185.6,35.5 c-0.4,1.5-0.7,2.9-1.4,4.3c-0.5,1.1-1.2,2-2.4,2.5c-2.3,1-4-0.1-3.9-2.6c0.1-3.3,2.3-6,5.1-6.4c0.3-0.1,0.6-0.1,1-0.1 C185.9,33.3,186.1,33.6,185.6,35.5z"></path> <path class="st0" d="M121.9,77.7c-0.5-2.2-1.7-3.9-2.8-5.8c-1.6-2.6-3.7-4.7-6.3-6.4c-2.6-1.7-7.9-0.1-7.5,3.5 c0.1,0.7-0.4,1-0.9,1.3c-1.8,1.1-3.6,2.1-5.3,3.2c-0.6,0.4-1.2,0.4-1.8,0.2c-3.1-1.1-6.4,1.3-6.4,4.6c0,3.1,1,5.9,2.4,8.6 c1.1,2,2.2,3.9,3.9,5.4c2.3,1.9,5.1,1,5.9-1.8c0.3-1,0.2-2,0.3-2.9c0-2.7,0-2.7,0.6-3.4c1.9-2.2,4.4-3.6,7.2-4.5 c0.8-0.3,1.6-0.1,2.4,0.4c1.2,0.8,2.6,1.4,4,1.8C120.3,82.6,122.4,79.8,121.9,77.7z M119.7,79.9c-0.8,0.7-1.7,0.6-2.6,0.2 c-0.9-0.4-1.8-0.8-2.6-1.3c-1.3-0.9-2.7-0.9-4.2-0.4c-2.9,1-5.4,2.6-7.5,4.8c-1.1,1.2-0.9,2.6-0.9,3.8c0,1.1,0,2.1-0.2,3 c-0.5,1.9-2.1,2.4-3.5,1.1c-1.7-1.6-2.8-3.7-3.9-5.7c-1-1.8-1.5-3.8-1.9-5.9c-0.3-1.7,0.3-3,1.7-4c0.8-0.6,1.7-0.8,2.6-0.3 c1.1,0.6,2.1,0.4,3.1-0.2c1.8-1.2,3.7-2.3,5.6-3.4c0.9-0.5,1.3-1.2,1.4-2.3c0.2-2.2,2.7-3.6,4.8-2.6c2.5,1.3,4.3,3.3,5.8,5.6 c1,1.6,2,3.2,2.7,4.9C120.5,78.1,120.6,79.1,119.7,79.9z"></path> <path class="st0" d="M218.6,76.2c-2.9-2.4-5.9-4.8-8.8-7.1c-1.2-1-2.4-0.8-3.4,0.4c-3.8,4.7-7.5,9.3-11.3,14 c-1.1,1.3-0.9,2.5,0.4,3.6c2.8,2.2,5.5,4.4,8.3,6.7c1.4,1.2,2.6,1.1,3.7-0.3c3.8-4.7,7.5-9.3,11.3-14c0.4-0.4,0.6-0.9,0.6-1.6 C219.4,77.2,219.1,76.6,218.6,76.2z M204.9,92.8c-2.9-2.3-5.8-4.6-8.6-6.9c-0.8-0.6-0.3-1.1,0.1-1.6c0.4-0.6,0.8-0.4,1.3,0 c2.8,2.3,5.7,4.6,8.5,6.9c0.3,0.2,0.6,0.4,0.7,0.8C206.8,92.7,205.5,93.3,204.9,92.8z M215.9,80.7c-2.6,3.3-5.3,6.6-7.9,9.9 c-0.4,0.5-0.6,0.6-1.1,0.1c-2.8-2.3-5.7-4.6-8.5-6.9c-0.8-0.6-0.8-1-0.2-1.8c2.6-3.1,5.1-6.3,7.6-9.5c0.5-0.6,0.8-0.6,1.4-0.1 c2.9,2.4,5.8,4.7,8.7,7.1c0.2,0.2,0.5,0.3,0.5,0.7C216.2,80.3,216,80.5,215.9,80.7z M217,79.2c-0.4,0.3-0.6-0.2-0.9-0.4 c-2.9-2.3-5.8-4.6-8.6-6.9c-0.4-0.3-0.9-0.6-0.3-1.2c0.5-0.5,0.9-1.1,1.7-0.4c2,1.7,4.1,3.3,6.2,5c0.8,0.6,1.6,1.3,2.4,1.9 c0.3,0.2,0.5,0.4,0.4,0.9C217.8,78.5,217.4,78.9,217,79.2z"></path> <path class="st0" d="M164.2,74.7c-0.6-0.1-0.9-0.3-1.1-0.7c-0.2-0.4-0.2-0.9,0.2-1.3c1.1-1.1,2.2-2.3,3.4-3.3 c0.5-0.4,1.1-0.4,1.6,0.1c0.5,0.4,0.6,1,0.2,1.5c-1.1,1.2-2.3,2.4-3.5,3.5C164.7,74.6,164.4,74.6,164.2,74.7z"></path> <path class="st0" d="M157.7,68.6c0,0.7,0,1.3,0,2c0,0.8-0.4,1.3-1.3,1.3c-0.8,0-1.2-0.5-1.2-1.2c0-1.5,0-2.9,0-4.4 c0-0.8,0.5-1.2,1.3-1.2c0.7,0,1.2,0.5,1.2,1.3C157.7,67,157.7,67.8,157.7,68.6z"></path> <path class="st0" d="M150.3,73.4c0,0.6-0.2,0.9-0.7,1.2c-0.4,0.3-0.9,0.2-1.3-0.1c-1.2-1.1-2.3-2.3-3.4-3.4 c-0.4-0.4-0.4-1,0.1-1.4c0.4-0.4,0.9-0.7,1.4-0.3c1.4,1.1,2.6,2.4,3.8,3.8C150.3,73.1,150.3,73.3,150.3,73.4z"></path> <path class="st0" d="M201.9,88.8c-0.1,0.2-0.2,0.4-0.4,0.3c-0.4-0.1-0.7-0.4-0.8-0.8c0-0.2,0.1-0.4,0.4-0.3 C201.4,88.2,201.7,88.4,201.9,88.8z"></path> <path class="st0" d="M211.8,73.5c0.6,0.6,1.4,0.9,1.9,1.7c0.2,0.3-0.2,0.6-0.5,0.3c-0.6-0.4-1.1-0.9-1.7-1.4 c-0.1-0.1-0.2-0.3,0-0.4C211.5,73.6,211.6,73.6,211.8,73.5z"></path> <path class="st0" d="M165.2,83.8c0.1-4.3-2.9-8-7.2-8.9c-4.1-0.9-8.4,1.3-10.2,5.1c-1.6,3.6-0.6,6.8,1.8,9.6 c1,1.1,1.5,2.3,1.4,3.9c-0.1,1.1,0,2.1,0,3.2c0.1,1.6,1.1,2.7,2.7,2.7c0.8,0,1.6,0,2.3,0c0.7,0,1.5,0,2.2,0 c1.8-0.1,2.8-1.1,2.8-2.9c0-1,0-2,0-3.1c-0.1-1.4,0.4-2.7,1.4-3.8C164,88,165.1,86.1,165.2,83.8z M158.5,97.6c-1.1,0-2.1,0-3.2,0 c-0.6,0-1.1,0-1.7,0c-0.5-0.1-0.8-0.5-0.8-1c0-0.6,0.5-0.4,0.9-0.4c0.8,0,1.6,0,2.4,0c0.8,0,1.5,0,2.3,0c0.3,0,0.9-0.3,0.9,0.4 C159.4,97.2,159,97.6,158.5,97.6z M158.7,94.5c-0.9,0-1.7,0-2.6,0c-0.9,0-1.8,0-2.7,0c-0.5,0-0.6-0.2-0.6-0.6 c0-0.4,0.1-0.7,0.6-0.7c1.8,0,3.6,0,5.3,0c0.5,0,0.6,0.2,0.6,0.6C159.4,94.4,159.2,94.5,158.7,94.5z M159.6,91.1 c-0.1,0.4-0.5,0.4-0.8,0.4c-0.9,0-1.8,0-3.1,0c-1.6,0.3-3.3,0.2-4.1-2.2c-0.2-0.6-0.9-1-1.3-1.6c-2.1-2.8-2.1-5.9,0-8.6 c2.1-2.6,5.7-3.4,8.7-2.1c3.2,1.4,6.2,6.1,2.9,10.5C161.2,88.7,160,89.6,159.6,91.1z"></path> <path class="st0" d="M99.8,80.1c-0.3-0.4-0.5-1-1.2-0.4c-0.6,0.5-1,0.4-1.3-0.3c-0.3-0.8-0.8-0.5-1.3-0.2c-0.5,0.3-1,0.6-0.4,1.2 c0.6,0.7,0.3,1.1-0.4,1.3C95,81.8,94.7,82,95,82.4c0.3,0.4,0.3,0.9,0.9,1.1c0.2-0.1,0.4-0.2,0.6-0.3c0.5-0.4,0.8-0.3,1.1,0.3 c0.3,0.7,0.7,0.7,1.3,0.3c0.5-0.3,1-0.6,0.4-1.3c-0.5-0.6-0.3-0.9,0.3-1.2C100.4,81,100.1,80.6,99.8,80.1z M99.1,81 c-0.8,0.4-1.1,0.9-0.4,1.6c0.2,0.2,0.3,0.5-0.1,0.7c-0.4,0.2-0.5,0.1-0.7-0.2c-0.4-0.9-0.9-1-1.7-0.4c-0.2,0.2-0.5,0.3-0.7-0.1 c-0.2-0.3-0.1-0.5,0.2-0.7c0.3-0.2,0.9-0.3,0.9-0.9c-0.2-0.3-0.3-0.5-0.4-0.7c-0.2-0.3-0.3-0.5,0.1-0.7c0.3-0.2,0.5-0.1,0.7,0.2 c0.4,0.8,0.9,1.1,1.6,0.4c0.2-0.2,0.5-0.3,0.7,0.1C99.5,80.6,99.5,80.9,99.1,81z"></path> <path class="st0" d="M109.9,72.6c-0.8,0-1.5,0.5-1.4,1.4c0,0.9,0.6,1.3,1.4,1.3c0.9,0,1.3-0.5,1.4-1.4 C111.2,73.2,110.8,72.6,109.9,72.6z M109.8,74.9c-0.5-0.1-0.8-0.4-0.8-0.9c0-0.6,0.4-0.9,0.9-0.8c0.5,0,0.8,0.3,0.8,0.8 C110.7,74.6,110.3,74.9,109.8,74.9z"></path> <path class="st0" d="M113.1,73.3c-0.9-0.1-1.4,0.5-1.5,1.3c-0.1,0.8,0.4,1.4,1.3,1.5c0.9,0.1,1.4-0.4,1.5-1.4 C114.4,73.8,113.9,73.3,113.1,73.3z M112.9,75.5c-0.5,0-0.8-0.3-0.8-0.9c0-0.5,0.3-0.9,0.8-0.9c0.6,0,0.8,0.4,0.9,1 C113.8,75.3,113.4,75.5,112.9,75.5z"></path> <path class="st0" d="M110.9,69.6c-1,0-1.5,0.5-1.5,1.3c0,0.8,0.4,1.4,1.3,1.4c0.9,0,1.5-0.5,1.5-1.4 C112.2,70.1,111.6,69.6,110.9,69.6z M110.7,71.8c-0.6,0-0.9-0.4-0.8-0.9c0.1-0.5,0.4-0.8,0.9-0.8c0.6,0,0.8,0.5,0.9,0.9 C111.5,71.6,111.2,71.8,110.7,71.8z"></path> <path class="st0" d="M114,70.2c-0.9,0-1.5,0.5-1.5,1.4c0,0.9,0.5,1.3,1.4,1.4c0.9,0,1.4-0.5,1.4-1.3 C115.3,70.9,114.8,70.3,114,70.2z M113.8,72.5c-0.5,0-0.8-0.4-0.8-0.8c0-0.5,0.3-0.9,0.9-0.9c0.5,0,0.8,0.3,0.9,0.8 C114.6,72.1,114.4,72.5,113.8,72.5z"></path> <path class="st0" d="M101.7,75.2c-0.6,0.2-1.5,0.4-1.6,1.2c0,0.4,0.3,1.2,0.9,1c0.6-0.2,1.3-0.5,1.7-1.2 C102.3,75.9,102.3,75,101.7,75.2z M101.1,76.8c-0.3,0-0.4-0.2-0.4-0.4c0.1-0.4,0.5-0.5,0.8-0.6c0.2-0.1,0.3,0,0.3,0.2 C101.9,76.6,101.4,76.6,101.1,76.8z"></path> <path class="st0" d="M105.7,72.8c-0.6,0.2-1.5,0.4-1.6,1.3c0,0.4,0.3,1.2,0.8,1c0.6-0.2,1.4-0.5,1.7-1.3 C106.3,73.4,106.3,72.6,105.7,72.8z M105.1,74.4c-0.2,0.1-0.3-0.1-0.3-0.2c0-0.5,0.5-0.6,0.8-0.8c0.3-0.1,0.3,0.1,0.4,0.3 C105.8,74.1,105.4,74.2,105.1,74.4z"></path> <path class="st0" d="M155.7,83.5c1.5,0,2.5,0.3,3.4,0.8c0.3,0.2,1,0.3,0.6,0.9c-0.3,0.4-0.6,1.3-1.6,0.6c-1.2-0.9-2.7-0.9-3.9,0 c-0.9,0.6-1.2-0.1-1.5-0.5c-0.6-0.7,0.3-0.8,0.6-1C154.1,83.8,155.1,83.5,155.7,83.5z"></path> </g> <path class="st1" d="M131.8,40.7c-0.7-0.5-1.5-0.9-2-1.4c-0.4-0.4,0.3-0.8,0.5-1.2c2.7-4,6-7.5,9-11.2c0.9-1.1,1.8-2.3,2.7-3.5 c0.2-0.3,0.6-0.7,1-0.5c0.5,0.3,0.1,0.8-0.1,1.1c-3.7,4.9-6.4,10.5-10.1,15.4C132.6,39.9,132.2,40.3,131.8,40.7z"></path> <path class="st1" d="M132.4,41.4c2.9-3.5,5-7.2,7.3-10.8c1.6,2.2,1.6,4.7-0.1,6.8c-0.9,1-1.5,2.1-1.6,3.5c-0.1,0.5-0.2,0.6-0.7,0.6 C135.7,41.4,134.2,41.4,132.4,41.4z"></path> <path class="st1" d="M130.2,37c-1.4-1.8-1.6-4.2-0.4-6.1c1.2-2,4.1-3.5,7.2-2.5C134.7,31.4,132.2,34,130.2,37z"></path> <path class="st1" d="M124,48.1c0.6-2.1,1.5-4.4,3.6-5.9c0.8-0.6,1.2,0.5,1.8,0.8c0.5,0.2,0.4,0.5,0.3,1c-0.8,2.3-2.4,3.9-4.3,5.3 C124.5,49.7,123.9,49.3,124,48.1z"></path> <path class="st2" d="M130.3,42.7c-0.3,0-2.1-1.3-2-1.4c0.3-0.5,0.5-1.2,1.1-1.5c0.2-0.1,2,1.2,1.9,1.4 C131,41.8,130.7,42.3,130.3,42.7z"></path> <path class="st3" d="M132.8,43c-0.6-0.5-0.7-0.9,0.2-0.9c1.3-0.1,2.6,0,3.9,0c0.8,0,0.7,0.4,0.3,0.9 C135.7,43.6,134.2,43.5,132.8,43z"></path> <path class="st4" d="M137.2,43.2c0.5,0.6,0.3,0.9-0.4,0.9c-1.3,0-2.5,0.1-3.8,0c-0.9-0.1-0.9-0.4-0.2-0.9 C134.2,43.1,135.7,43,137.2,43.2z"></path> <path class="st5" d="M126.8,22.6c1.2,1.6,2.4,3.2,3.6,4.7c-0.1,0.1-0.3,0.2-0.4,0.3c-1.2-1.6-2.5-3.2-3.7-4.7 C126.6,22.8,126.7,22.7,126.8,22.6z"></path> <path class="st6" d="M135,26.2c-0.3-1.9-0.4-3.8-0.1-5.8C135.2,22.3,135.2,24.3,135,26.2z"></path> <path class="st7" d="M134.9,44.5c0.4,0.1,1.3-0.3,1.2,0.6c0,0.6-0.8,0.4-1.2,0.4c-0.4,0-1.2,0.3-1.2-0.4 C133.6,44.2,134.4,44.6,134.9,44.5z"></path> <path class="st8" d="M126.2,35.9c-1.2,0.6-2.5,1.2-3.8,1.5c-0.1-0.1-0.1-0.3-0.2-0.4c1.2-0.5,2.4-1,3.6-1.4 C126.2,35.5,126.2,35.6,126.2,35.9z"></path> <path class="st8" d="M143.9,35.6c1.2,0.5,2.4,1,3.6,1.4c-0.1,0.1-0.1,0.3-0.2,0.4c-1.3-0.4-2.6-1-3.8-1.5 C143.5,35.6,143.5,35.5,143.9,35.6z"></path> <path class="st9" d="M145.2,30c-1,0.3-2,0.9-3.1,0.8c0.8-0.7,1.7-0.8,2.6-1.1C144.9,29.7,145.2,29.5,145.2,30z"></path> <path class="st10" d="M125.2,30.2c-0.9-0.2-1.7-0.5-2.5-0.9c0-0.2,0.2-0.2,0.3-0.3c1,0.2,1.9,0.5,2.8,0.9 C125.6,30.2,125.4,30.1,125.2,30.2z"></path> <path class="st9" d="M125.2,30.2c0.1-0.2,0.3-0.2,0.5-0.3c0.7,0.1,1.3,0.3,2.2,0.9C126.7,31,126,30.5,125.2,30.2z"></path> <path class="st11" d="M137.2,43.2c-1.5,0-2.9,0-4.4,0c0-0.1,0-0.2,0-0.2c1.5,0,2.9,0,4.4,0C137.2,43,137.2,43.1,137.2,43.2z"></path> <path class="st10" d="M145.2,30c-0.1-0.2-0.3-0.2-0.6-0.2c0.6-0.3,1.3-0.6,2-0.7c0.1,0.1,0.3,0.1,0.3,0.3 C146.5,29.7,145.9,29.9,145.2,30z"></path> <path class="st12" d="M143.9,35.6c-0.1,0.1-0.2,0.2-0.3,0.3c-0.4-0.1-0.8-0.2-1.4-0.7C143,35,143.4,35.3,143.9,35.6z"></path> <path class="st12" d="M126.2,35.9c-0.1-0.1-0.2-0.2-0.3-0.3c0.4-0.3,0.9-0.6,1.5-0.5C127.1,35.8,126.6,35.8,126.2,35.9z"></path> <path class="st13" d="M147,29.3c-0.1-0.1-0.2-0.2-0.3-0.3c0.3-0.1,0.7-0.4,0.8-0.1C147.7,29.4,147.2,29.3,147,29.3z"></path> <path class="st13" d="M123,29.1c-0.1,0.1-0.2,0.2-0.3,0.3c-0.2-0.1-0.7,0-0.5-0.4C122.3,28.7,122.7,29,123,29.1z"></path> <path class="st14" d="M134.3,186.8c-3.4-0.1-6.8-0.5-10.1-1.7c-1-0.4-2-0.9-2.8-1.6c-0.9-0.9-1.1-1.9-0.6-3c0.4-1,1.5-1.5,2.8-1.3 c1.2,0.2,2.3,0.9,3.3,1.4c3.1,1.4,6.2,2,9.6,1.6c4.1-0.5,7.3-3.2,8-6.8c0.6-2.8-0.3-4.8-2.8-6.3c-2.6-1.5-5.4-2.2-8.2-3 c-2.6-0.8-5.3-1.6-7.7-2.9c-5.7-3.3-6.5-9.8-1.9-14.4c3.9-3.8,8.8-4.7,14-4.3c2.4,0.2,4.7,0.6,6.9,1.6c0.9,0.4,1.7,0.8,2.4,1.5 c0.7,0.7,1,1.5,0.6,2.4c-0.4,0.9-1.1,1.4-2.1,1.5c-1.4,0.2-2.4-0.4-3.6-1c-3.1-1.7-6.4-2.1-9.8-1.2c-1.4,0.4-2.7,1.1-3.7,2.3 c-1.8,2.3-1.4,5.2,0.9,7c1.8,1.3,3.8,2,5.9,2.6c2.3,0.8,4.7,1.4,7,2.2c0.6,0.2,1.1,0.4,1.7,0.7c3.8,1.6,6.7,4,7.1,8.4 c0.4,4.7-1.5,8.4-5.2,11.1C142.6,186,138.5,186.7,134.3,186.8z"></path> <path class="st1" d="M261.6,165.5c0-5.9,0-11.8,0-17.7c0-2.2,0.9-3.3,3.1-3.3c6,0,12,0,18,0c2,0,3,0.9,2.9,2.5 c0,1.1-0.6,1.8-1.6,2.1c-0.7,0.2-1.4,0.2-2.1,0.2c-4.4,0-8.8,0-13.2,0c-0.8,0-1,0.2-1,1c0,3.9,0,7.8,0,11.7c0,0.8,0.2,1,1,1 c4.1,0,8.1,0,12.2,0c2.3,0,3.4,0.8,3.4,2.4c0,1.6-1.2,2.4-3.5,2.4c-4,0-8.1,0-12.1,0c-0.9,0-1.1,0.2-1.1,1.1c0,3.9,0.1,7.7,0,11.6 c0,1,0.3,1.1,1.2,1.1c4.4,0,8.7,0,13.1,0c0.7,0,1.4,0,2.1,0.2c1,0.3,1.6,1,1.6,2.2c0,1.1-0.5,1.9-1.5,2.2c-0.5,0.2-1.1,0.3-1.7,0.3 c-5.8,0-11.6,0-17.4,0c-2.5,0-3.5-0.9-3.5-3.4C261.6,177.2,261.6,171.4,261.6,165.5z"></path> <path class="st1" d="M230.3,165.5c0-5.9,0-11.8,0-17.7c0-2.3,1-3.3,3.3-3.3c5.9,0,11.8,0,17.7,0c2.1,0,3.1,0.9,3.1,2.5 c0,1.1-0.6,1.8-1.5,2.1c-0.7,0.2-1.4,0.3-2,0.3c-4.4,0-8.8,0-13.2,0c-0.8,0-1.1,0.1-1.1,1c0.1,3.9,0,7.8,0,11.7c0,0.8,0.2,1,1,1 c4.1,0,8.1,0,12.2,0c2.3,0,3.4,0.9,3.4,2.5c0,1.5-1.2,2.4-3.4,2.4c-4,0-8.1,0-12.1,0c-0.8,0-1.2,0.1-1.2,1.1 c0.1,3.8,0.1,7.7,0,11.5c0,0.9,0.2,1.2,1.2,1.2c4.4-0.1,8.7,0,13.1,0c0.7,0,1.5,0,2.2,0.3c1,0.4,1.5,1.1,1.5,2.1 c0,1.1-0.4,1.8-1.4,2.2c-0.6,0.2-1.2,0.3-1.8,0.3c-5.8,0-11.6,0-17.4,0c-2.5,0-3.5-0.9-3.5-3.4 C230.3,177.2,230.3,171.3,230.3,165.5z"></path> <path class="st14" d="M52.8,165.4c0-5.9,0-11.7,0-17.6c0-2.4,0.9-3.3,3.3-3.4c5.9,0,11.8,0,17.7,0c2.1,0,3.1,0.9,3,2.6 c0,1.1-0.6,1.7-1.6,2.1c-0.7,0.2-1.4,0.2-2.1,0.2c-4.4,0-8.8,0-13.2,0c-0.9,0-1.1,0.2-1.1,1.1c0,3.9,0,7.7,0,11.6 c0,0.9,0.2,1.1,1.1,1.1c4-0.1,7.9,0,11.8,0c0.3,0,0.6,0,0.9,0c1.8,0.1,2.8,0.9,2.8,2.4c0,1.5-1,2.4-2.9,2.5c-3.6,0.1-7.2,0-10.8,0 c-3,0-3,0-3,3c0,3.2,0.1,6.3,0,9.4c0,1.2,0.4,1.4,1.5,1.4c4.3-0.1,8.6,0,12.8,0c0.7,0,1.4,0,2.1,0.3c1,0.3,1.5,1,1.6,2.1 c0,1.1-0.4,1.9-1.5,2.3c-0.6,0.2-1.1,0.3-1.7,0.3c-5.8,0-11.7,0-17.5,0c-2.5,0-3.4-1-3.4-3.5C52.8,177.2,52.8,171.3,52.8,165.4z"></path> <path class="st14" d="M99.4,178.2c1.9-4.6,3.7-8.8,5.4-13.1c2.5-6.1,5-12.1,7.5-18.1c0.7-1.6,1.6-2.8,3.6-2.7 c1.9,0.1,2.9,1.2,2.6,3.1c-0.1,0.4-0.2,0.9-0.4,1.3c-5.1,11.9-10.2,23.7-15.2,35.5c-0.6,1.4-1.4,2.5-3.1,2.6 c-1.9,0.2-3-0.5-3.8-2.3c-1.8-4-3.5-8.1-5.2-12.1c-3.3-7.7-6.6-15.4-9.9-23.1c-0.2-0.4-0.3-0.8-0.4-1.1c-0.6-1.8-0.3-2.9,0.9-3.5 c1.5-0.8,3.5-0.4,4.3,1c0.4,0.7,0.8,1.4,1.1,2.2c4,9.6,8,19.2,12,28.8C99,177.1,99.2,177.5,99.4,178.2z"></path> <path class="st1" d="M177.1,167.1c0,5.5,0,11,0,16.5c0,2.7-2.5,4.1-4.9,2.8c-1-0.6-1.3-1.5-1.3-2.6c0-5.1,0-10.3,0-15.4 c0-6,0-12,0-18c0-0.9-0.2-1.1-1.1-1.1c-2.8,0.1-5.5,0-8.3,0c-1.7,0-2.7-0.7-2.9-1.9c-0.3-1.3,0.3-2.4,1.6-2.8 c0.5-0.1,1-0.2,1.4-0.2c8.2,0,16.5,0,24.7,0c0.6,0,1.1,0.1,1.7,0.3c1,0.4,1.5,1.1,1.5,2.2c0,1.1-0.5,1.8-1.5,2.1 c-0.6,0.2-1.3,0.3-1.9,0.3c-2.6,0-5.3,0-7.9,0c-0.8,0-1,0.2-1,1C177.1,155.9,177.1,161.5,177.1,167.1z"></path> <path class="st15" d="M213.6,54.9c-3-0.9-6.1-1.1-9.3-1c-0.1-0.5,0.2-0.7,0.4-1c3.7-6.2,5.1-12.9,3.5-20.1 c-3.2-14.7-16-23.9-31-22.2c-6.5,0.8-12,3.7-16.6,8.4c-0.3,0.3-0.7,0.5-0.4,1c1,1.5,1.7,3.1,2.5,4.8c0.3-0.3,0.5-0.6,0.7-0.8 c5-5.9,11.4-8.7,19.2-8c16.4,1.4,25.8,19.2,17.7,33.4c-1.9,3.3-4.4,6.1-7.9,7.9c-4.9,2.6-8.5,6.4-11.1,11.2 c-0.2,0.3-0.2,0.7-0.6,0.9c-10.6-21.1-39.6-20.2-49.4-1.9c-0.2-0.4-0.4-0.8-0.6-1.2c-2.5-5.3-6.3-9.5-11.4-12.4 c-0.9-0.5-1.7-1.1-2.4-1.9c-5.1-5.5-6.9-11.9-5.8-19.3c1.9-12.1,13.9-20.7,25.9-18.4c14.4,2.7,22.5,17.2,17.1,30.9 c-0.1,0.4-0.4,0.7-0.2,1.2c0.6,2,1.4,4,2.5,5.8c6.5-9,6.9-22.5-1.1-32.8c-8.1-10.4-22-13.8-33.8-8.2c-7.3,3.5-12.3,9.1-14.8,16.8 c-2.6,7.7-1.6,15.1,2.2,22.3c-2.5-0.2-4.8-0.2-7.1,0.1c-16.3,2.1-27.4,17.9-23.8,33.8c2.9,12.8,14.2,21.8,27.4,21.8 c8.5,0,15.6-3.3,21.1-9.8c0.3-0.4,0.7-0.7,0.4-1.3c-0.9-1.7-1.4-3.6-2-5.5c-0.5,0.2-0.6,0.6-0.8,0.9c-1.4,2.2-3.1,4.1-5.2,5.6 c-7.1,5.4-17,6-25,1.4c-8.3-4.9-12-12.4-11-21.9c1.1-11,10.3-19.5,21.2-20.1c12.5-0.7,24.3,9.7,23.7,23c-0.1,1.6-0.4,3.1-0.2,4.6 c1,10.9,6.4,18.9,16.2,23.8c0.6,0.3,1,0.7,1.2,1.4c0.8,2.6,1.6,5.2,2.5,7.8c0.3,0.8,0.3,1.6,0.1,2.4c-0.8,3.4-1.7,6.9-2.3,10.4 c-0.4,2.1-1.1,2.9-3.3,3.3c-4.1,0.7-8,2-11.5,4.6c-0.9,0.6-1.7,1.3-2.1,2.3c18.3-6.1,36.5-6.2,54.6,0c-0.7-1.2-1.9-2.4-4-3.5 c-3-1.7-6.4-2.7-9.8-3.4c-0.8-0.2-1.2-0.4-1.4-1.3c-0.6-3.7-1.4-7.4-2.1-11c-0.2-0.9-0.4-1.8-0.2-2.8c0.8-3.1,1.6-6.2,2.3-9.3 c0.2-0.8,0.5-1.2,1.3-1.6c9.4-5.5,14.3-13.7,14.5-24.6c0.2-12.8,10.3-22.7,23.1-22.4c14.5,0.4,24.8,13.8,21.4,27.9 c-2.2,9-9.5,15.6-18.8,16.9c-9.7,1.3-18.3-2.9-22.9-11.3c-0.2-0.4-0.4-0.7-0.7-1.2c-0.7,1.8-1.3,3.5-2.2,5 c-0.6,0.9-0.3,1.4,0.2,2.1c6.6,8.4,15.1,12.1,25.7,10.9c13-1.5,22.9-11.5,24.4-24.4C235.4,71.3,226.9,58.7,213.6,54.9z M172.6,96.8 c-2.4,2.9-5.5,4.8-9,6.1c-0.6,0.2-0.9,0.5-1,1.3c-0.5,4-1.1,7.9-1.6,11.9c-0.3,1.9,0.3,3.8,0.5,5.7c0.3,2.8,0.7,5.7,1.1,8.5 c0.1,0.7,0.1,1.1-0.9,1c-3.5-0.4-7-0.4-10.5-0.1c-0.9,0.1-1.1-0.1-0.9-1c0.7-4,1.4-7.9,2-11.9c0.2-1.4-0.3-2.7-0.5-4 c-0.5-3.1-1-6.2-1.5-9.3c-0.1-0.8-0.4-1.3-1.4-1.5c-9.1-2.7-15.2-10.4-15.7-19.5c-0.5-10.3,4.6-19.2,13.1-22.8 c2.7-1.2,5.7-1.7,9-1.7c9.4,0.2,16.6,4.2,20.5,12.9C179.7,80.9,178.8,89.3,172.6,96.8z"></path> <path class="st14" d="M27.9,144.7c-5.4-0.5-10.7-0.1-16.1-0.2c-2.1,0-3,1.1-3,3.2c0,5.9,0,11.8,0,17.7c0,6,0,12,0,18 c0,2,0.9,3.1,2.9,3.1c5.6,0,11.3,0.4,17-0.2c5.6-0.6,10.3-2.9,13.7-7.5c3.1-4.2,4.1-9,4-14.1C46.3,153.8,38.7,145.6,27.9,144.7z M38.3,173.3c-2.2,5.2-6.2,7.9-11.7,8.6c-3.6,0.5-7.3,0.1-11,0.3c-0.9,0-0.8-0.5-0.8-1.1c0-5.2,0-10.4,0-15.6c0-5.1,0-10.3,0-15.4 c0-0.5-0.2-1.1,0.7-1.1c4,0.1,8-0.3,11.9,0.4c6.6,1.2,11.1,5.8,12,12.5C40.1,165.8,39.9,169.6,38.3,173.3z"></path> <path class="st1" d="M224.2,183c-0.6-0.7-1.2-1.2-1.9-1.8c-4.8-4.4-9.6-8.8-14.7-13.5c0.9,0,1.4,0,1.9,0c3.1-0.1,6.1-0.5,9-1.9 c6-2.9,7.8-12.8,1.6-17.6c-2.5-1.9-5.4-3.1-8.5-3.5c-5-0.6-10-0.2-15-0.2c-1.9,0-2.8,1.1-2.8,3.1c0,6.4,0,12.7,0,19.1 c0,5.7,0,11.4,0,17.1c0,1.1,0.3,2,1.3,2.6c2.3,1.3,4.9-0.1,4.9-2.8c0-4.8,0-9.5,0-14.3c0-0.3-0.2-0.7,0.2-1 c0.8,0.7,1.5,1.4,2.3,2.1c5.5,5.1,11.1,10.1,16.6,15.2c1.1,1,2.4,1.6,3.9,1.2C224.9,186.1,225.4,184.5,224.2,183z M200.8,163.9 c-0.7,0-0.8-0.4-0.7-0.9c0-2.2,0-4.5,0-6.7c0-2.2,0-4.3,0-6.5c0-0.6,0.1-0.9,0.8-0.9c3.1,0.1,6.3-0.2,9.4,0.2 c1.3,0.1,2.5,0.5,3.7,1.1c4.7,2.5,4.6,7.4,2.8,10.5c-1.3,2.3-3.8,2.9-6.2,3.1C207.3,163.9,204,163.8,200.8,163.9z"></path> <path class="st1" d="M188.1,32.6c0.1-0.4,0.4-0.9-0.1-1.2c-0.4-0.3-0.8-0.1-1.1,0.1c-0.6,0.3-1.1,0.3-1.8,0 c-0.6-0.2-1.1-0.3-1.7-0.3c-4.9-0.2-9.5,4.4-9.3,9.3c0.1,3,2.3,4.9,5.3,4.4c1.4-0.2,2.6-0.8,3.6-1.9c0.5,1.5,1.1,2,2.7,2 c0.8,0,1.6-0.2,2.4-0.6c2.3-1.2,3.7-3.2,4.7-5.4c2.8-6.2-0.6-12.5-7.3-13.6c-5.9-1-12.3,2.3-15.1,7.7c-2.1,4-2.6,8.1-0.3,12.2 c2.8,4.8,8.8,6.8,14.4,4.8c1.9-0.7,3.7-1.5,5.1-3c0.3-0.3,0.7-0.8,0.2-1.3c-0.4-0.5-0.9-0.4-1.3-0.1c-0.3,0.2-0.6,0.4-0.9,0.6 c-1.6,1-3.3,1.8-5.1,2.2c-4.7,1-9-1.4-10.6-5.9c-1.6-4.7,0.9-10.8,5.6-13.7c2.5-1.5,5.2-2,8-1.3c2.8,0.7,4.6,2.6,5.2,5.4 c0.7,3.3,0,6.4-2.4,8.9c-0.6,0.6-1.4,1.4-2.3,0.9c-0.9-0.6-0.2-1.6,0-2.3C186.6,37.8,187.4,35.2,188.1,32.6z M184.6,35.6 c-0.4,1.4-0.7,2.9-1.4,4.3c-0.5,1.1-1.2,2-2.3,2.5c-2.3,1-4-0.1-3.9-2.6c0.1-3.3,2.3-6,5.1-6.5c0.3-0.1,0.6-0.1,1-0.1 C185,33.4,185.2,33.7,184.6,35.6z"></path> <path class="st1" d="M120.9,77.8c-0.5-2.2-1.7-4-2.8-5.8c-1.6-2.6-3.7-4.7-6.3-6.4c-2.6-1.7-7.9-0.1-7.5,3.5c0.1,0.7-0.4,1-0.9,1.3 c-1.8,1.1-3.6,2.1-5.3,3.2C97.5,74,97,74,96.3,73.8C93.2,72.7,90,75,90,78.3c0,3.1,1,5.9,2.4,8.6c1.1,2,2.2,3.9,3.9,5.4 c2.3,1.9,5.1,1,5.9-1.8c0.3-1,0.2-2,0.3-2.9c0-2.7,0-2.8,0.6-3.5c1.9-2.2,4.4-3.6,7.2-4.4c0.8-0.3,1.6-0.1,2.4,0.4 c1.2,0.8,2.6,1.4,4,1.8C119.4,82.7,121.4,79.9,120.9,77.8z M118.8,80c-0.8,0.7-1.7,0.6-2.6,0.1c-0.9-0.4-1.8-0.8-2.6-1.3 c-1.3-0.9-2.7-0.9-4.2-0.4c-2.9,1-5.4,2.6-7.5,4.8c-1.1,1.2-0.9,2.6-0.9,3.8c0,1.1,0.1,2.1-0.2,3c-0.5,1.9-2.1,2.4-3.5,1.1 c-1.7-1.6-2.8-3.7-3.9-5.7c-1-1.8-1.6-3.8-1.9-5.9c-0.3-1.7,0.3-3,1.7-4c0.8-0.6,1.7-0.8,2.6-0.3c1.1,0.6,2.1,0.4,3.1-0.3 c1.9-1.2,3.7-2.3,5.6-3.4c0.9-0.5,1.3-1.2,1.4-2.3c0.2-2.3,2.7-3.6,4.8-2.6c2.5,1.3,4.3,3.3,5.8,5.6c1,1.6,2,3.1,2.7,4.9 C119.6,78.2,119.7,79.2,118.8,80z"></path> <path class="st1" d="M217.7,76.3c-2.9-2.4-5.9-4.8-8.8-7.1c-1.2-0.9-2.4-0.8-3.4,0.5c-3.8,4.7-7.5,9.3-11.3,14 c-1.1,1.3-0.9,2.5,0.4,3.6c2.8,2.2,5.5,4.4,8.3,6.7c1.4,1.1,2.5,1.1,3.7-0.3c3.8-4.7,7.5-9.3,11.3-14c0.4-0.5,0.6-0.9,0.6-1.6 C218.5,77.3,218.2,76.7,217.7,76.3z M204,92.9c-2.9-2.3-5.8-4.7-8.6-6.9c-0.8-0.6-0.3-1.1,0.1-1.6c0.4-0.7,0.8-0.4,1.3,0 c2.8,2.3,5.7,4.6,8.5,6.9c0.3,0.2,0.6,0.4,0.7,0.8C205.9,92.8,204.6,93.4,204,92.9z M215,80.8c-2.6,3.3-5.3,6.6-7.9,9.9 c-0.4,0.5-0.6,0.6-1.1,0.1c-2.8-2.3-5.7-4.6-8.6-6.9c-0.8-0.6-0.8-1-0.2-1.8c2.6-3.1,5.1-6.3,7.6-9.5c0.5-0.6,0.8-0.6,1.4-0.1 c2.9,2.4,5.8,4.7,8.7,7.1c0.2,0.2,0.5,0.3,0.5,0.7C215.3,80.4,215.1,80.6,215,80.8z M216.1,79.3c-0.4,0.3-0.6-0.2-0.9-0.4 c-2.9-2.3-5.7-4.6-8.6-6.9c-0.4-0.3-0.9-0.6-0.3-1.2c0.5-0.5,0.9-1.1,1.7-0.4c2,1.7,4.1,3.3,6.1,5c0.8,0.6,1.6,1.3,2.4,1.9 c0.3,0.2,0.5,0.4,0.4,0.9C216.9,78.6,216.5,79,216.1,79.3z"></path> <path class="st16" d="M163.3,74.8c-0.6-0.1-0.9-0.3-1.1-0.7c-0.2-0.4-0.2-0.9,0.2-1.3c1.1-1.1,2.2-2.3,3.4-3.3 c0.5-0.4,1.1-0.4,1.5,0.1c0.5,0.4,0.6,1,0.2,1.5c-1.1,1.2-2.4,2.3-3.5,3.5C163.8,74.7,163.5,74.7,163.3,74.8z"></path> <path class="st16" d="M156.8,68.7c0,0.7,0,1.3,0,1.9c0,0.8-0.4,1.3-1.2,1.3c-0.8,0-1.2-0.5-1.2-1.3c0-1.5,0-2.9,0-4.4 c0-0.8,0.5-1.2,1.2-1.2c0.7,0,1.2,0.5,1.2,1.3C156.8,67.1,156.8,67.9,156.8,68.7z"></path> <path class="st16" d="M149.4,73.4c0,0.6-0.3,0.9-0.7,1.2c-0.4,0.3-0.9,0.2-1.3-0.1c-1.2-1.1-2.3-2.3-3.4-3.4c-0.4-0.4-0.4-1,0-1.4 c0.4-0.4,0.9-0.7,1.4-0.3c1.4,1.1,2.6,2.4,3.8,3.8C149.4,73.2,149.4,73.4,149.4,73.4z"></path> <path class="st17" d="M201,88.9c-0.1,0.2-0.2,0.4-0.4,0.3c-0.4-0.1-0.7-0.4-0.8-0.8c0-0.2,0.1-0.4,0.4-0.3 C200.5,88.2,200.8,88.5,201,88.9z"></path> <path class="st18" d="M210.8,73.6c0.6,0.6,1.4,0.9,1.9,1.6c0.2,0.3-0.2,0.6-0.5,0.3c-0.6-0.4-1.1-0.9-1.7-1.4 c-0.1-0.1-0.2-0.3,0-0.4C210.6,73.7,210.7,73.7,210.8,73.6z"></path> <path class="st19" d="M164.3,83.9c0.1-4.3-2.9-8-7.2-9c-4.1-0.9-8.4,1.3-10.2,5.2c-1.6,3.6-0.7,6.8,1.8,9.6c1,1.1,1.5,2.3,1.4,3.9 c-0.1,1.1,0,2.1,0,3.2c0.1,1.6,1.1,2.7,2.7,2.8c0.8,0,1.6,0,2.3,0c0.7,0,1.5,0,2.2,0c1.8-0.1,2.8-1.1,2.8-2.9c0-1,0.1-2.1,0-3.1 c-0.1-1.5,0.4-2.7,1.4-3.8C163.1,88.1,164.2,86.2,164.3,83.9z M157.6,97.7c-1.1,0-2.1,0-3.2,0c-0.6,0-1.1,0-1.7,0 c-0.5-0.1-0.8-0.5-0.8-0.9c0-0.6,0.5-0.4,0.9-0.4c0.8,0,1.6,0,2.4,0c0.8,0,1.5,0,2.3,0c0.3,0,0.9-0.3,0.9,0.4 C158.5,97.3,158.1,97.7,157.6,97.7z M157.8,94.6c-0.9,0-1.7,0-2.6,0c-0.9,0-1.8,0-2.7,0c-0.5,0-0.7-0.2-0.7-0.6 c0-0.4,0.1-0.7,0.6-0.7c1.8,0,3.6,0,5.4,0c0.5,0,0.6,0.2,0.6,0.7C158.5,94.5,158.3,94.6,157.8,94.6z M158.7,91.1 c-0.1,0.4-0.5,0.4-0.8,0.4c-0.9,0-1.8,0-3.1,0c-1.6,0.3-3.3,0.2-4.1-2.2c-0.2-0.6-0.9-1.1-1.3-1.6c-2.1-2.8-2.1-5.9,0.1-8.5 c2.1-2.6,5.7-3.4,8.7-2.1c3.2,1.4,6.2,6.1,2.9,10.5C160.2,88.7,159.1,89.7,158.7,91.1z"></path> <path class="st20" d="M98.9,80.2c-0.3-0.4-0.5-1-1.2-0.4c-0.6,0.5-1,0.4-1.3-0.3c-0.3-0.8-0.8-0.5-1.3-0.2c-0.5,0.3-1,0.6-0.4,1.2 c0.6,0.7,0.3,1.1-0.4,1.4c-0.3,0.1-0.6,0.3-0.3,0.7c0.3,0.4,0.3,0.9,0.9,1.1c0.2-0.1,0.4-0.2,0.6-0.3c0.5-0.4,0.8-0.3,1.1,0.3 c0.3,0.7,0.7,0.7,1.3,0.3c0.5-0.3,1-0.6,0.4-1.3c-0.5-0.6-0.2-0.9,0.3-1.2C99.5,81.1,99.2,80.6,98.9,80.2z M98.2,81.1 c-0.8,0.4-1.1,0.9-0.4,1.6c0.2,0.2,0.3,0.4-0.1,0.7c-0.3,0.2-0.5,0.1-0.7-0.2c-0.4-0.9-0.9-1-1.7-0.4c-0.2,0.2-0.5,0.3-0.7-0.1 c-0.2-0.3-0.1-0.5,0.2-0.7c0.3-0.3,0.9-0.3,0.9-0.9c-0.1-0.3-0.3-0.5-0.4-0.7c-0.2-0.3-0.3-0.5,0.1-0.7c0.3-0.2,0.5-0.1,0.7,0.2 c0.4,0.8,0.9,1.1,1.6,0.4c0.3-0.2,0.5-0.3,0.7,0.1C98.6,80.7,98.5,81,98.2,81.1z"></path> <path class="st18" d="M109,72.7c-0.8,0-1.5,0.5-1.4,1.4c0,0.9,0.6,1.3,1.4,1.3c0.9,0,1.3-0.5,1.4-1.4 C110.3,73.3,109.8,72.7,109,72.7z M108.9,75c-0.5-0.1-0.8-0.4-0.8-0.9c0-0.6,0.4-0.9,0.9-0.8c0.5,0,0.8,0.3,0.8,0.8 C109.8,74.7,109.4,75,108.9,75z"></path> <path class="st21" d="M112.1,73.3c-0.9-0.1-1.4,0.5-1.5,1.3c-0.1,0.8,0.4,1.4,1.3,1.5c0.9,0.1,1.4-0.4,1.5-1.4 C113.5,73.9,112.9,73.4,112.1,73.3z M112,75.6c-0.5,0-0.8-0.3-0.8-0.9c0.1-0.5,0.3-0.9,0.8-0.9c0.6,0,0.8,0.4,0.9,0.9 C112.9,75.3,112.5,75.6,112,75.6z"></path> <path class="st18" d="M110,69.6c-1,0-1.5,0.5-1.5,1.3c0,0.8,0.4,1.4,1.3,1.4c0.9,0,1.5-0.5,1.5-1.4C111.3,70.2,110.7,69.7,110,69.6 z M109.8,71.9c-0.6,0-0.9-0.4-0.8-0.9c0.1-0.5,0.4-0.8,0.9-0.8c0.6,0,0.8,0.5,0.9,0.9C110.6,71.6,110.3,71.9,109.8,71.9z"></path> <path class="st17" d="M113.1,70.3c-0.9,0-1.5,0.5-1.5,1.4c0,0.9,0.5,1.3,1.4,1.4c0.9,0,1.4-0.5,1.4-1.3 C114.4,71,113.9,70.3,113.1,70.3z M112.9,72.6c-0.6,0-0.8-0.4-0.9-0.8c0-0.5,0.3-0.9,0.9-0.9c0.5,0,0.8,0.3,0.9,0.8 C113.7,72.2,113.5,72.6,112.9,72.6z"></path> <path class="st22" d="M100.8,75.3c-0.6,0.2-1.5,0.4-1.6,1.2c0,0.4,0.3,1.2,0.9,1c0.6-0.2,1.3-0.5,1.7-1.2 C101.4,76,101.4,75.1,100.8,75.3z M100.2,76.9c-0.3,0-0.4-0.1-0.4-0.3c0.1-0.4,0.5-0.5,0.8-0.6c0.2-0.1,0.3,0,0.3,0.2 C101,76.7,100.4,76.7,100.2,76.9z"></path> <path class="st21" d="M104.8,72.9c-0.6,0.2-1.5,0.4-1.6,1.3c0,0.3,0.3,1.1,0.8,1c0.6-0.2,1.4-0.5,1.7-1.3 C105.4,73.5,105.3,72.7,104.8,72.9z M104.2,74.5c-0.2,0.1-0.3-0.1-0.3-0.2c-0.1-0.5,0.4-0.6,0.8-0.7c0.2-0.2,0.3,0.1,0.4,0.3 C104.9,74.2,104.5,74.3,104.2,74.5z"></path> <path class="st23" d="M154.8,83.6c1.5,0,2.5,0.3,3.4,0.8c0.3,0.2,1,0.3,0.6,0.9c-0.3,0.4-0.6,1.3-1.6,0.6c-1.2-0.9-2.7-0.9-3.9,0 c-0.9,0.6-1.2-0.1-1.5-0.5c-0.6-0.7,0.3-0.8,0.6-1C153.2,83.8,154.2,83.6,154.8,83.6z"></path> </g> </svg>